<svg id="Layer_1" data-name="Layer 1" xmlns="http://www.w3.org/2000/svg" xmlns:xlink="http://www.w3.org/1999/xlink" viewBox="0 0 360.121 384.82"><defs><style>.cls-1,.cls-16,.cls-2{fill:none;stroke-miterlimit:10;}.cls-1,.cls-16{stroke-width:4px;}.cls-1,.cls-10,.cls-11,.cls-12,.cls-13,.cls-14,.cls-15,.cls-2,.cls-3,.cls-4,.cls-5,.cls-6,.cls-7,.cls-8,.cls-9{fill-rule:evenodd;}.cls-1{stroke:url(#linear-gradient);}.cls-2{stroke-width:5px;stroke:url(#linear-gradient-2);}.cls-3{fill:url(#linear-gradient-3);}.cls-4{fill:url(#linear-gradient-4);}.cls-5{fill:url(#linear-gradient-5);}.cls-6{fill:url(#linear-gradient-6);}.cls-7{fill:url(#linear-gradient-7);}.cls-8{fill:url(#linear-gradient-8);}.cls-9{fill:url(#linear-gradient-9);}.cls-10{fill:url(#linear-gradient-10);}.cls-11{fill:url(#linear-gradient-11);}.cls-12{fill:url(#linear-gradient-12);}.cls-13{fill:url(#linear-gradient-13);}.cls-14{fill:url(#linear-gradient-14);}.cls-15{fill:url(#linear-gradient-15);}.cls-16{stroke:#22346a;}.cls-17{fill:#22346a;}</style><linearGradient id="linear-gradient" x1="76.009" y1="221.554" x2="214.238" y2="221.554" gradientTransform="translate(-1.832 5.733) rotate(-0.132)" gradientUnits="userSpaceOnUse"><stop offset="0.005" stop-color="#35b4e7"/><stop offset="0.211" stop-color="#34b8e8"/><stop offset="0.995" stop-color="#33c3ea"/></linearGradient><linearGradient id="linear-gradient-2" x1="286.667" y1="221.785" x2="425.894" y2="221.785" xlink:href="#linear-gradient"/><linearGradient id="linear-gradient-3" x1="134.439" y1="368.097" x2="371.056" y2="368.097" xlink:href="#linear-gradient"/><linearGradient id="linear-gradient-4" x1="174.26" y1="345.881" x2="201.894" y2="345.881" xlink:href="#linear-gradient"/><linearGradient id="linear-gradient-5" x1="206.891" y1="338.596" x2="218.95" y2="338.596" xlink:href="#linear-gradient"/><linearGradient id="linear-gradient-6" x1="288.29" y1="347.123" x2="298.943" y2="347.123" xlink:href="#linear-gradient"/><linearGradient id="linear-gradient-7" x1="305.436" y1="341.297" x2="333.069" y2="341.297" xlink:href="#linear-gradient"/><linearGradient id="linear-gradient-8" x1="288.291" y1="329.812" x2="300.942" y2="329.812" xlink:href="#linear-gradient"/><linearGradient id="linear-gradient-9" x1="228.294" y1="91.396" x2="276.657" y2="91.396" xlink:href="#linear-gradient"/><linearGradient id="linear-gradient-10" x1="242.221" y1="151.364" x2="262.592" y2="151.364" xlink:href="#linear-gradient"/><linearGradient id="linear-gradient-11" x1="258.551" y1="264.862" x2="269.205" y2="264.862" xlink:href="#linear-gradient"/><linearGradient id="linear-gradient-12" x1="274.076" y1="260.112" x2="280.565" y2="260.112" xlink:href="#linear-gradient"/><linearGradient id="linear-gradient-13" x1="270.222" y1="272.265" x2="276.711" y2="272.265" xlink:href="#linear-gradient"/><linearGradient id="linear-gradient-14" x1="230.568" y1="283.947" x2="237.056" y2="283.947" xlink:href="#linear-gradient"/><linearGradient id="linear-gradient-15" x1="234.457" y1="296.683" x2="245.109" y2="296.683" xlink:href="#linear-gradient"/></defs><title>logo-color</title><path class="cls-1" d="M173.107,196.825a101.384,101.384,0,0,1,37.051-23.38c.266-12.969.484-25.938.529-38.909-2.888.732-5.756,1.541-8.578,2.494-.68.231-.962.056-1.338-.478q-8.325-11.814-16.674-23.606c-.368-.523-.622-.647-1.262-.394a178.66,178.66,0,0,0-22.413,10.765.82.82,0,0,0-.454,1.169q4.222,13.833,8.417,27.68a.931.931,0,0,1-.46,1.272,135.511,135.511,0,0,0-19.771,15.694.842.842,0,0,1-1.211.146q-12.753-7.113-25.523-14.185c-.5-.275-.8-.33-1.25.159a178.357,178.357,0,0,0-15.513,19.295.865.865,0,0,0,.1,1.324q9.832,10.609,19.643,21.249a.92.92,0,0,1,.153,1.34,134.818,134.818,0,0,0-10.972,22.669c-.184.492-.394.693-.952.654-5.684-.373-11.367-.717-17.057-1.063-4.134-.258-8.273-.5-12.409-.768a.661.661,0,0,0-.819.569,167.183,167.183,0,0,0-5.306,23.012c-.06.39.008.84-.309,1.175l0,.844c3.553,1.4,7.11,2.787,10.658,4.194,5.749,2.279,11.489,4.575,17.241,6.836a.874.874,0,0,1,.674,1.083,126.221,126.221,0,0,0-.288,20.777c.112,1.519.207,3.037.377,4.545.063.56-.25.643-.625.8q-13.452,5.413-26.9,10.836c-.335.137-.686.239-1.027.356v.678a36.227,36.227,0,0,1,.838,4.443,173.2,173.2,0,0,0,4.89,19.9c.152.493.365.582.829.548,5.093-.348,10.186-.675,15.278-1.012,4.728-.312,9.455-.619,14.179-.947a.769.769,0,0,1,.925.58,133.777,133.777,0,0,0,9.708,20.339,2.834,2.834,0,0,1,.408-.523l27.185-27.311a103.982,103.982,0,0,1-6.836-21.212,97.736,97.736,0,0,1-1.772-28.6Q145.788,223.708,173.107,196.825Z" transform="translate(-68.964 -43.011)"/><path class="cls-2" d="M325.517,196.477a101.4,101.4,0,0,0-37.158-23.212c-.326-12.966-.6-25.933-.709-38.9,2.893.717,5.764,1.514,8.59,2.455a.973.973,0,0,0,1.337-.483q8.269-11.852,16.567-23.685c.366-.523.62-.648,1.259-.4a178.525,178.525,0,0,1,22.463,10.663.82.82,0,0,1,.456,1.167c-2.771,9.234-5.514,18.48-8.292,27.72a.939.939,0,0,0,.467,1.27,135.234,135.234,0,0,1,19.847,15.6.84.84,0,0,0,1.211.139q12.72-7.17,25.459-14.3c.493-.278.792-.335,1.25.154a178.4,178.4,0,0,1,15.6,19.223.861.861,0,0,1-.1,1.321q-9.784,10.659-19.544,21.341a.925.925,0,0,0-.15,1.342,135.207,135.207,0,0,1,11.078,22.617c.187.494.4.691.953.651q8.528-.6,17.051-1.144c4.137-.274,8.274-.532,12.409-.822a.657.657,0,0,1,.819.564,167.015,167.015,0,0,1,5.413,22.988c.064.393-.006.84.313,1.173v.847q-5.32,2.12-10.64,4.243c-5.736,2.3-11.465,4.623-17.209,6.91a.875.875,0,0,0-.668,1.088,125.546,125.546,0,0,1,.382,20.775c-.1,1.518-.191,3.04-.353,4.55-.062.558.25.64.628.789q13.473,5.352,26.944,10.714c.336.136.686.235,1.031.351l0,.678a35.515,35.515,0,0,0-.821,4.448,173.422,173.422,0,0,1-4.8,19.923c-.149.493-.365.585-.828.554-5.092-.325-10.189-.629-15.283-.943q-7.089-.432-14.185-.88a.762.762,0,0,0-.919.582,133.5,133.5,0,0,1-9.616,20.384,2.755,2.755,0,0,0-.412-.523l-27.308-27.185A103.815,103.815,0,0,0,354.8,289.98a97.727,97.727,0,0,0,1.643-28.61Q352.962,223.237,325.517,196.477Z" transform="translate(-68.964 -43.011)"/><path class="cls-3" d="M133.4,352.459c5.675-3.831,11.579-4.5,17.331-.489,5.595,3.9,7.139,9.541,5.328,15.989-.567,2.022-.133,2.415,1.79,2.513a19.757,19.757,0,0,1,14.5,7.168c1.325,1.555,2.369,1.353,4.042.649,6.492-2.718,12.753-2.159,18.462,2.084,1.433,1.066,2.5,1.428,4.23.575a33.221,33.221,0,0,1,14.277-3.236c1.708-.03,2.839.1,2.78-2.463-.247-10.6,6.2-15.8,16.419-13.577a9.311,9.311,0,0,0,1.6,0c-1.872-10.355,1.419-18.187,11.081-22.725,1.713-.8,1.468-1.461.735-2.832-1.8-3.373-1.212-6.533,1.726-8.965a2.825,2.825,0,0,0,.988-3.618,3.459,3.459,0,0,1,1.474-4.173,3.644,3.644,0,0,1,4.063-.151c1.638,1.013,2.478,2.781,1.607,4.517-.908,1.819,0,2.446,1.14,3.448a6.75,6.75,0,0,1,1.715,8.628c-1.062,2.115-.225,2.663,1.45,3.456a17.893,17.893,0,0,1,10.591,13.744,3.455,3.455,0,0,0,2.81,3.16,11.431,11.431,0,0,1,8.15,9.118c.452,2.536,1.624,2.849,3.893,2.7a45.172,45.172,0,0,1,21.8,3.967,6.679,6.679,0,0,0,4.926.278c9.058-2.438,17.789-2.425,25,4.9,1.032,1.045,1.763,2.171,3.3.343,4.329-5.145,10.04-7.563,16.754-7.674-3.455-12.265.9-18.025,12.662-16.962-2.327,8.612-7.669,15.584-12.84,22.508C299.208,452.977,179.017,442.692,135,356.4,134.36,355.141,133.934,353.777,133.4,352.459Z" transform="translate(-68.964 -43.011)"/><path class="cls-4" d="M200.857,351.151a13.817,13.817,0,1,1-13.847-13.787A13.815,13.815,0,0,1,200.857,351.151Z" transform="translate(-68.964 -43.011)"/><path class="cls-5" d="M217.9,343.827a6.03,6.03,0,1,1-6.046-6.017A6.028,6.028,0,0,1,217.9,343.827Z" transform="translate(-68.964 -43.011)"/><path class="cls-6" d="M297.909,352.169a5.327,5.327,0,1,1-5.338-5.315A5.325,5.325,0,0,1,297.909,352.169Z" transform="translate(-68.964 -43.011)"/><path class="cls-7" d="M332.022,346.264a13.817,13.817,0,1,1-13.847-13.784A13.816,13.816,0,0,1,332.022,346.264Z" transform="translate(-68.964 -43.011)"/><path class="cls-8" d="M299.868,334.851a6.326,6.326,0,1,1-6.342-6.309A6.327,6.327,0,0,1,299.868,334.851Z" transform="translate(-68.964 -43.011)"/><path class="cls-9" d="M232.082,123.461c1.509-1.516,3.008-3.048,4.541-4.541a1.331,1.331,0,0,0,.435-1.228c-1-9.969-1.941-19.94-2.243-29.959A46.5,46.5,0,0,1,239.238,66.6a59.082,59.082,0,0,1,10.87-16.064c.438-.465.673-.5,1.129-.013a57.277,57.277,0,0,1,14.017,24.5,42.417,42.417,0,0,1,1.463,12.05c-.219,10.161-1.16,20.276-2.115,30.387a1.39,1.39,0,0,0,.476,1.283c3.145,3.024,6.26,6.08,9.407,9.1a1.818,1.818,0,0,1,.6,1.683c-.481,3.81-.929,7.623-1.393,11.439-.135,1.1-.315,1.187-1.273.572q-4.421-2.841-8.842-5.7c-.332-.216-.756-.709-1.027-.511-.543.4-1.288.581-1.551,1.379-.416,1.248-1.008,2.431-1.4,3.683a2.564,2.564,0,0,1-1.938,1.79,23.058,23.058,0,0,1-6.523.736,24.849,24.849,0,0,1-6.94-.671,2.634,2.634,0,0,1-2.063-1.872c-.351-1.178-.894-2.295-1.326-3.45a2.929,2.929,0,0,0-.9-1.1c-.656-.616-1.119-.323-1.692.055q-4.393,2.9-8.8,5.764c-.866.564-1.075.481-1.2-.506-.481-3.809-.949-7.623-1.451-11.431a1.945,1.945,0,0,1,.65-1.825c1.542-1.487,3.032-3.025,4.544-4.541C232.005,123.383,232.042,123.422,232.082,123.461Zm23.365-32.968a6.644,6.644,0,1,0-9.409-.03A6.732,6.732,0,0,0,255.447,90.493Z" transform="translate(-68.964 -43.011)"/><path class="cls-10" d="M253.079,165.671c-.67.67-1.2,1.187-1.712,1.724-.279.3-.5.327-.813.024-4.748-4.616-8.55-9.784-9.648-16.526a20.327,20.327,0,0,1-.066-5.009c.034-.429.169-.45.562-.4.9.119,1.268.521,1.456,1.472a22.242,22.242,0,0,0,5.1,9.813,28.492,28.492,0,0,0,2.455,2.663c.373.351.61.42,1,.024,3.708-3.744,6.72-7.886,7.683-13.222.074-.4,1.463-1.057,1.725-.8.122.127.11.4.134.612.588,5.054-.879,9.593-3.462,13.85A37.957,37.957,0,0,1,253.079,165.671Z" transform="translate(-68.964 -43.011)"/><path class="cls-11" d="M267.981,269.98a5.327,5.327,0,1,1-5.337-5.317A5.321,5.321,0,0,1,267.981,269.98Z" transform="translate(-68.964 -43.011)"/><path class="cls-12" d="M279.331,265.2a3.245,3.245,0,1,1-3.252-3.239A3.246,3.246,0,0,1,279.331,265.2Z" transform="translate(-68.964 -43.011)"/><path class="cls-13" d="M275.505,277.361a3.245,3.245,0,1,1-3.252-3.237A3.247,3.247,0,0,1,275.505,277.361Z" transform="translate(-68.964 -43.011)"/><path class="cls-14" d="M235.877,289.134a3.244,3.244,0,1,1-3.251-3.236A3.246,3.246,0,0,1,235.877,289.134Z" transform="translate(-68.964 -43.011)"/><path class="cls-15" d="M243.959,301.854a5.326,5.326,0,1,1-5.336-5.314A5.324,5.324,0,0,1,243.959,301.854Z" transform="translate(-68.964 -43.011)"/><path class="cls-16" d="M167.341,190.783A101.357,101.357,0,0,1,204.393,167.4c.267-12.967.487-25.937.531-38.906-2.889.725-5.757,1.54-8.579,2.493a.976.976,0,0,1-1.338-.478Q186.685,118.7,178.332,106.9c-.369-.519-.622-.646-1.262-.393a177.8,177.8,0,0,0-22.41,10.764.821.821,0,0,0-.455,1.168q4.224,13.839,8.418,27.681a.929.929,0,0,1-.461,1.271,135.821,135.821,0,0,0-19.771,15.7.843.843,0,0,1-1.211.143q-12.752-7.112-25.524-14.183c-.5-.276-.794-.333-1.25.157a178.283,178.283,0,0,0-15.513,19.3.867.867,0,0,0,.1,1.325q9.834,10.61,19.642,21.247a.93.93,0,0,1,.156,1.346,135.131,135.131,0,0,0-10.977,22.663c-.182.5-.392.695-.949.658q-8.525-.558-17.056-1.067c-4.135-.258-8.275-.5-12.411-.765a.661.661,0,0,0-.821.568,167.487,167.487,0,0,0-5.3,23.009c-.061.393.008.843-.308,1.18l0,.844c3.555,1.4,7.112,2.785,10.66,4.192,5.748,2.277,11.487,4.575,17.241,6.836a.867.867,0,0,1,.672,1.081,125.923,125.923,0,0,0-.286,20.779c.109,1.517.206,3.036.374,4.547.064.564-.249.647-.624.794q-13.449,5.412-26.9,10.838c-.336.134-.683.238-1.027.354l0,.677a36.592,36.592,0,0,1,.838,4.442,172.79,172.79,0,0,0,4.891,19.906c.15.492.367.584.83.549,5.092-.349,10.186-.677,15.278-1.012q7.091-.468,14.179-.949a.763.763,0,0,1,.922.58,133.735,133.735,0,0,0,9.71,20.343,2.947,2.947,0,0,1,.409-.53l27.185-27.308a104.357,104.357,0,0,1-6.839-21.214,97.819,97.819,0,0,1-1.772-28.6Q140.022,217.664,167.341,190.783Z" transform="translate(-68.964 -43.011)"/><path class="cls-16" d="M330.373,190.409A101.339,101.339,0,0,0,293.217,167.2c-.326-12.965-.6-25.934-.71-38.9,2.894.716,5.768,1.516,8.594,2.456a.976.976,0,0,0,1.336-.485Q310.7,118.414,319,106.581c.367-.522.615-.648,1.258-.4a178.091,178.091,0,0,1,22.462,10.661.821.821,0,0,1,.459,1.165q-4.162,13.857-8.291,27.72a.932.932,0,0,0,.464,1.27A135.861,135.861,0,0,1,355.2,162.6a.844.844,0,0,0,1.211.138q12.719-7.172,25.459-14.3c.5-.276.793-.335,1.251.153a178.4,178.4,0,0,1,15.6,19.224.869.869,0,0,1-.09,1.326q-9.789,10.655-19.544,21.336a.921.921,0,0,0-.154,1.344,135.17,135.17,0,0,1,11.081,22.616c.186.493.394.692.953.652q8.523-.6,17.05-1.146c4.131-.274,8.271-.534,12.406-.82a.655.655,0,0,1,.822.565,167.575,167.575,0,0,1,5.414,22.986c.062.39-.009.842.31,1.177v.844c-3.546,1.414-7.094,2.819-10.639,4.241-5.737,2.3-11.467,4.626-17.21,6.913a.874.874,0,0,0-.668,1.083,125.607,125.607,0,0,1,.384,20.779c-.1,1.517-.192,3.035-.354,4.55-.064.562.249.641.628.788q13.473,5.353,26.943,10.717c.338.13.685.235,1.029.351l0,.676a35.338,35.338,0,0,0-.815,4.445,173.842,173.842,0,0,1-4.8,19.929c-.151.492-.365.584-.827.552-5.094-.326-10.192-.629-15.285-.943q-7.092-.432-14.184-.883a.758.758,0,0,0-.917.584,133.744,133.744,0,0,1-9.621,20.386,2.735,2.735,0,0,0-.41-.528l-27.311-27.183a103.893,103.893,0,0,0,6.741-21.245A97.565,97.565,0,0,0,361.3,255.3Q357.821,217.169,330.373,190.409Z" transform="translate(-68.964 -43.011)"/><path class="cls-16" d="M126.948,345.929c5.672-3.834,11.578-4.506,17.331-.492,5.593,3.9,7.138,9.539,5.326,15.988-.566,2.02-.131,2.412,1.788,2.509a19.779,19.779,0,0,1,14.507,7.171c1.323,1.554,2.368,1.352,4.042.648,6.491-2.716,12.753-2.161,18.461,2.087,1.431,1.063,2.5,1.423,4.23.572a33.189,33.189,0,0,1,14.273-3.232c1.711-.028,2.842.095,2.783-2.47-.25-10.593,6.2-15.786,16.419-13.578a8.456,8.456,0,0,0,1.6.01c-1.867-10.358,1.422-18.186,11.085-22.727,1.713-.8,1.466-1.458.732-2.833-1.8-3.37-1.212-6.53,1.728-8.961a2.823,2.823,0,0,0,.986-3.618,3.462,3.462,0,0,1,1.475-4.175,3.653,3.653,0,0,1,4.063-.147c1.64,1.011,2.479,2.777,1.609,4.517-.909,1.817,0,2.444,1.138,3.446a6.749,6.749,0,0,1,1.717,8.624c-1.064,2.122-.228,2.665,1.448,3.459a17.9,17.9,0,0,1,10.591,13.745,3.453,3.453,0,0,0,2.808,3.156,11.437,11.437,0,0,1,8.153,9.12c.451,2.535,1.625,2.849,3.893,2.7a45.082,45.082,0,0,1,21.8,3.969,6.676,6.676,0,0,0,4.93.276c9.055-2.439,17.787-2.421,25,4.893,1.031,1.05,1.762,2.174,3.293.349,4.332-5.146,10.041-7.564,16.754-7.679-3.454-12.264.906-18.023,12.664-16.962-2.327,8.618-7.669,15.589-12.838,22.509-57.973,77.64-178.169,67.355-222.184-18.939C127.9,348.6,127.474,347.241,126.948,345.929Z" transform="translate(-68.964 -43.011)"/><path class="cls-16" d="M195.858,345.961a13.815,13.815,0,1,1-13.845-13.784A13.813,13.813,0,0,1,195.858,345.961Z" transform="translate(-68.964 -43.011)"/><path class="cls-16" d="M215.162,339.963a6.029,6.029,0,1,1-6.042-6.019A6.03,6.03,0,0,1,215.162,339.963Z" transform="translate(-68.964 -43.011)"/><path class="cls-16" d="M295.41,330.382a6.328,6.328,0,1,1-6.341-6.309A6.327,6.327,0,0,1,295.41,330.382Z" transform="translate(-68.964 -43.011)"/><path class="cls-16" d="M293.449,348.2a5.327,5.327,0,1,1-5.337-5.312A5.326,5.326,0,0,1,293.449,348.2Z" transform="translate(-68.964 -43.011)"/><path class="cls-16" d="M326.9,341.592a13.816,13.816,0,1,1-13.851-13.781A13.817,13.817,0,0,1,326.9,341.592Z" transform="translate(-68.964 -43.011)"/><path class="cls-16" d="M226.758,118.3c1.513-1.518,3.008-3.05,4.54-4.545a1.333,1.333,0,0,0,.439-1.225c-1-9.971-1.942-19.94-2.246-29.962a46.5,46.5,0,0,1,4.423-21.131,59.133,59.133,0,0,1,10.868-16.065c.444-.463.674-.5,1.13-.013a57.255,57.255,0,0,1,14.019,24.5,42.471,42.471,0,0,1,1.463,12.052c-.217,10.162-1.163,20.275-2.116,30.383a1.4,1.4,0,0,0,.475,1.285c3.144,3.025,6.264,6.08,9.41,9.107a1.817,1.817,0,0,1,.6,1.679c-.482,3.811-.93,7.627-1.4,11.439-.133,1.1-.313,1.189-1.269.577q-4.423-2.845-8.844-5.7c-.331-.212-.755-.706-1.026-.509-.545.4-1.291.584-1.554,1.377-.414,1.246-1,2.436-1.4,3.688a2.575,2.575,0,0,1-1.939,1.791,23.281,23.281,0,0,1-6.522.735,25.227,25.227,0,0,1-6.939-.673,2.652,2.652,0,0,1-2.068-1.872c-.347-1.179-.89-2.294-1.319-3.451a2.971,2.971,0,0,0-.9-1.1c-.659-.616-1.12-.32-1.694.061-2.924,1.93-5.866,3.844-8.8,5.761-.864.564-1.072.479-1.2-.506-.484-3.809-.952-7.623-1.454-11.433a1.944,1.944,0,0,1,.651-1.823c1.541-1.489,3.033-3.024,4.544-4.541C226.681,118.225,226.718,118.263,226.758,118.3Zm23.366-32.969a6.644,6.644,0,1,0-9.407-.03A6.734,6.734,0,0,0,250.124,85.333Z" transform="translate(-68.964 -43.011)"/><path class="cls-16" d="M247.753,160.509c-.667.672-1.2,1.188-1.708,1.725-.282.295-.5.327-.813.023-4.751-4.617-8.55-9.783-9.649-16.526a20.148,20.148,0,0,1-.068-5.011c.036-.426.17-.451.562-.4.9.121,1.269.524,1.459,1.472a22.245,22.245,0,0,0,5.1,9.815,28.077,28.077,0,0,0,2.455,2.661c.37.35.612.423,1.008.025,3.706-3.747,6.717-7.887,7.679-13.221.076-.4,1.466-1.058,1.724-.8.123.124.112.4.137.613.589,5.05-.88,9.591-3.462,13.85A37.828,37.828,0,0,1,247.753,160.509Z" transform="translate(-68.964 -43.011)"/><rect class="cls-17" x="237.404" y="180.072" width="3.431" height="92.7" transform="translate(-69.412 -42.536) rotate(-0.114)"/><rect class="cls-17" x="245.675" y="172.793" width="3.432" height="118.936" transform="translate(-69.559 -42.376) rotate(-0.147)"/><rect class="cls-17" x="254.286" y="166.361" width="3.435" height="72.857" transform="translate(-69.282 -42.608) rotate(-0.09)"/><path class="cls-16" d="M265.251,266.58a5.327,5.327,0,1,1-5.342-5.314A5.329,5.329,0,0,1,265.251,266.58Z" transform="translate(-68.964 -43.011)"/><path class="cls-16" d="M277.381,261.823a3.245,3.245,0,1,1-3.255-3.238A3.248,3.248,0,0,1,277.381,261.823Z" transform="translate(-68.964 -43.011)"/><path class="cls-16" d="M273.556,273.985a3.246,3.246,0,1,1-3.255-3.237A3.244,3.244,0,0,1,273.556,273.985Z" transform="translate(-68.964 -43.011)"/><path class="cls-16" d="M233.928,285.759a3.247,3.247,0,1,1-3.253-3.237A3.248,3.248,0,0,1,233.928,285.759Z" transform="translate(-68.964 -43.011)"/><path class="cls-16" d="M241.226,297.307a5.328,5.328,0,1,1-5.338-5.314A5.326,5.326,0,0,1,241.226,297.307Z" transform="translate(-68.964 -43.011)"/></svg>