<svg id="Layer_3" data-name="Layer 3" xmlns="http://www.w3.org/2000/svg" xmlns:xlink="http://www.w3.org/1999/xlink" viewBox="0 0 494.873 527.489"><defs><style>.cls-1{opacity:0.5;}.cls-17,.cls-19,.cls-2,.cls-3{fill:none;stroke-miterlimit:10;}.cls-2{stroke-width:4px;stroke:url(#linear-gradient);}.cls-10,.cls-11,.cls-12,.cls-13,.cls-14,.cls-15,.cls-16,.cls-17,.cls-19,.cls-2,.cls-3,.cls-4,.cls-5,.cls-6,.cls-7,.cls-8,.cls-9{fill-rule:evenodd;}.cls-3{stroke-width:5px;stroke:url(#linear-gradient-2);}.cls-4{fill:url(#linear-gradient-3);}.cls-5{fill:url(#linear-gradient-4);}.cls-6{fill:url(#linear-gradient-5);}.cls-7{fill:url(#linear-gradient-6);}.cls-8{fill:url(#linear-gradient-7);}.cls-9{fill:url(#linear-gradient-8);}.cls-10{fill:url(#linear-gradient-9);}.cls-11{fill:url(#linear-gradient-10);}.cls-12{fill:url(#linear-gradient-11);}.cls-13{fill:url(#linear-gradient-12);}.cls-14{fill:url(#linear-gradient-13);}.cls-15{fill:url(#linear-gradient-14);}.cls-16{fill:url(#linear-gradient-15);}.cls-17,.cls-19{stroke:#fff;}.cls-17{stroke-width:3px;}.cls-18{fill:#fff;}.cls-19{stroke-width:2px;}</style><linearGradient id="linear-gradient" x1="134.869" y1="355.688" x2="324.259" y2="355.688" gradientTransform="translate(-2.12 6.021) rotate(-0.132)" gradientUnits="userSpaceOnUse"><stop offset="0.005"/><stop offset="0.995"/></linearGradient><linearGradient id="linear-gradient-2" x1="426.027" y1="355.92" x2="616.415" y2="355.92" xlink:href="#linear-gradient"/><linearGradient id="linear-gradient-3" x1="214.809" y1="558.461" x2="541.625" y2="558.461" xlink:href="#linear-gradient"/><linearGradient id="linear-gradient-4" x1="269.811" y1="527.777" x2="307.979" y2="527.777" xlink:href="#linear-gradient"/><linearGradient id="linear-gradient-5" x1="314.879" y1="517.714" x2="331.536" y2="517.714" xlink:href="#linear-gradient"/><linearGradient id="linear-gradient-6" x1="427.309" y1="529.491" x2="442.023" y2="529.491" xlink:href="#linear-gradient"/><linearGradient id="linear-gradient-7" x1="450.991" y1="521.444" x2="489.157" y2="521.444" xlink:href="#linear-gradient"/><linearGradient id="linear-gradient-8" x1="427.309" y1="505.582" x2="444.784" y2="505.582" xlink:href="#linear-gradient"/><linearGradient id="linear-gradient-9" x1="344.442" y1="176.28" x2="411.241" y2="176.28" xlink:href="#linear-gradient"/><linearGradient id="linear-gradient-10" x1="363.678" y1="259.108" x2="391.815" y2="259.108" xlink:href="#linear-gradient"/><linearGradient id="linear-gradient-11" x1="386.233" y1="415.873" x2="400.948" y2="415.873" xlink:href="#linear-gradient"/><linearGradient id="linear-gradient-12" x1="407.676" y1="409.312" x2="416.639" y2="409.312" xlink:href="#linear-gradient"/><linearGradient id="linear-gradient-13" x1="402.353" y1="426.097" x2="411.316" y2="426.097" xlink:href="#linear-gradient"/><linearGradient id="linear-gradient-14" x1="347.583" y1="442.233" x2="356.545" y2="442.233" xlink:href="#linear-gradient"/><linearGradient id="linear-gradient-15" x1="352.954" y1="459.824" x2="367.667" y2="459.824" xlink:href="#linear-gradient"/></defs><title>logo</title><g class="cls-1"><path class="cls-2" d="M268.744,319.935a140,140,0,0,1,51.175-32.292c.367-17.914.668-35.826.731-53.742-3.99,1.01-7.951,2.129-11.848,3.444a1.342,1.342,0,0,1-1.849-.659q-11.5-16.319-23.03-32.605c-.509-.722-.86-.893-1.743-.544a246.714,246.714,0,0,0-30.957,14.869,1.132,1.132,0,0,0-.627,1.614q5.832,19.105,11.625,38.232a1.285,1.285,0,0,1-.635,1.757,187.052,187.052,0,0,0-27.307,21.676,1.163,1.163,0,0,1-1.673.2q-17.614-9.825-35.253-19.592c-.685-.381-1.1-.456-1.726.219A246.072,246.072,0,0,0,174.2,289.165a1.194,1.194,0,0,0,.137,1.828q13.583,14.655,27.132,29.349a1.271,1.271,0,0,1,.21,1.852,186.341,186.341,0,0,0-15.154,31.31c-.253.678-.543.957-1.315.9q-11.775-.771-23.558-1.468c-5.71-.355-11.428-.685-17.14-1.06a.914.914,0,0,0-1.132.786,230.989,230.989,0,0,0-7.328,31.783c-.084.54.011,1.16-.428,1.623l.006,1.167c4.907,1.933,9.819,3.849,14.72,5.792,7.94,3.149,15.869,6.319,23.813,9.442a1.206,1.206,0,0,1,.931,1.5,174.356,174.356,0,0,0-.4,28.7c.155,2.1.286,4.195.521,6.278.087.774-.346.888-.863,1.1q-18.58,7.478-37.149,14.967c-.462.19-.947.33-1.419.492l0,.936a50.118,50.118,0,0,1,1.158,6.137,238.878,238.878,0,0,0,6.754,27.489c.209.681.5.8,1.145.758,7.034-.481,14.068-.933,21.1-1.4,6.531-.431,13.06-.854,19.585-1.307a1.063,1.063,0,0,1,1.278.8,184.89,184.89,0,0,0,13.408,28.092,3.886,3.886,0,0,1,.564-.723l37.547-37.721a143.723,143.723,0,0,1-9.441-29.3,134.977,134.977,0,0,1-2.448-39.5Q231.01,357.066,268.744,319.935Z" transform="translate(-127.546 -111.511)"/><path class="cls-3" d="M479.252,319.453a140.062,140.062,0,0,0-51.321-32.059c-.451-17.909-.834-35.82-.98-53.734,4,.99,7.961,2.09,11.865,3.39.941.316,1.331.071,1.846-.668q11.421-16.368,22.882-32.713c.506-.722.856-.9,1.74-.551a246.716,246.716,0,0,1,31.026,14.728,1.133,1.133,0,0,1,.629,1.612c-3.828,12.754-7.616,25.524-11.452,38.287a1.3,1.3,0,0,0,.644,1.754,186.774,186.774,0,0,1,27.413,21.551,1.161,1.161,0,0,0,1.672.192q17.569-9.9,35.164-19.752c.681-.384,1.094-.463,1.727.213a246.4,246.4,0,0,1,21.547,26.551,1.19,1.19,0,0,1-.133,1.825q-13.514,14.721-27,29.476a1.278,1.278,0,0,0-.206,1.853,186.856,186.856,0,0,1,15.3,31.239c.258.682.547.954,1.317.9q11.777-.823,23.55-1.58c5.714-.379,11.428-.734,17.14-1.135a.905.905,0,0,1,1.13.779,230.6,230.6,0,0,1,7.477,31.751c.089.543-.008,1.161.433,1.62v1.169q-7.348,2.93-14.7,5.861c-7.921,3.181-15.835,6.386-23.769,9.545a1.209,1.209,0,0,0-.922,1.5,173.456,173.456,0,0,1,.527,28.693c-.14,2.1-.263,4.2-.487,6.286-.085.77.345.883.867,1.088q18.611,7.394,37.216,14.8c.464.187.947.323,1.423.484l0,.936a49.226,49.226,0,0,0-1.133,6.144,239.718,239.718,0,0,1-6.628,27.517c-.207.682-.5.808-1.144.765-7.033-.448-14.074-.868-21.109-1.3q-9.793-.6-19.592-1.216a1.052,1.052,0,0,0-1.269.8,184.666,184.666,0,0,1-13.282,28.154,3.888,3.888,0,0,0-.569-.723l-37.719-37.547a143.312,143.312,0,0,0,9.308-29.342,134.917,134.917,0,0,0,2.27-39.517Q517.16,356.415,479.252,319.453Z" transform="translate(-127.546 -111.511)"/><path class="cls-4" d="M213.906,534.9c7.838-5.291,15.993-6.215,23.938-.675,7.727,5.391,9.86,13.178,7.359,22.084-.784,2.792-.185,3.334,2.471,3.471a27.288,27.288,0,0,1,20.033,9.9c1.829,2.147,3.271,1.868,5.583.9,8.965-3.754,17.614-2.981,25.5,2.878,1.978,1.473,3.448,1.973,5.841.794a45.9,45.9,0,0,1,19.72-4.468c2.359-.042,3.921.132,3.84-3.4-.341-14.641,8.564-21.816,22.678-18.752a12.847,12.847,0,0,0,2.208.007c-2.585-14.3,1.96-25.121,15.305-31.389,2.366-1.108,2.028-2.018,1.016-3.911-2.493-4.659-1.674-9.023,2.383-12.383,1.864-1.547,2.051-2.832,1.365-5a4.777,4.777,0,0,1,2.036-5.763,5.031,5.031,0,0,1,5.612-.208c2.262,1.4,3.422,3.84,2.219,6.238-1.254,2.513.006,3.379,1.574,4.763,3.746,3.3,4.542,7.592,2.37,11.917-1.467,2.921-.311,3.678,2,4.773,8.064,3.821,13.133,10.144,14.629,18.984.433,2.554,1.431,3.547,3.881,4.365,6,2.007,10.127,6.241,11.257,12.592.623,3.5,2.243,3.936,5.377,3.727a62.386,62.386,0,0,1,30.108,5.479,9.229,9.229,0,0,0,6.805.384c12.51-3.368,24.569-3.349,34.523,6.764,1.426,1.444,2.436,3,4.557.474,5.979-7.107,13.866-10.447,23.14-10.6-4.772-16.941,1.248-24.9,17.489-23.429-3.214,11.895-10.592,21.525-17.736,31.089-80.074,107.234-246.083,93.028-306.876-26.162C215.227,538.6,214.637,536.717,213.906,534.9Z" transform="translate(-127.546 -111.511)"/><path class="cls-5" d="M307.073,533.09a19.084,19.084,0,1,1-19.127-19.043A19.082,19.082,0,0,1,307.073,533.09Z" transform="translate(-127.546 -111.511)"/><path class="cls-6" d="M330.607,522.974a8.329,8.329,0,1,1-8.351-8.31A8.325,8.325,0,0,1,330.607,522.974Z" transform="translate(-127.546 -111.511)"/><path class="cls-7" d="M441.121,534.5a7.358,7.358,0,1,1-7.373-7.342A7.355,7.355,0,0,1,441.121,534.5Z" transform="translate(-127.546 -111.511)"/><path class="cls-8" d="M488.237,526.34A19.084,19.084,0,1,1,469.112,507.3,19.082,19.082,0,0,1,488.237,526.34Z" transform="translate(-127.546 -111.511)"/><path class="cls-9" d="M443.827,510.577a8.738,8.738,0,1,1-8.76-8.714A8.74,8.74,0,0,1,443.827,510.577Z" transform="translate(-127.546 -111.511)"/><path class="cls-10" d="M350.2,218.6c2.084-2.094,4.154-4.21,6.272-6.272a1.835,1.835,0,0,0,.6-1.7c-1.375-13.769-2.68-27.541-3.1-41.38a64.235,64.235,0,0,1,6.109-29.189A81.616,81.616,0,0,1,375.1,117.879c.6-.641.93-.693,1.559-.017,9.151,9.744,15.867,20.887,19.36,33.842a58.569,58.569,0,0,1,2.021,16.644c-.3,14.034-1.6,28-2.922,41.97a1.923,1.923,0,0,0,.658,1.772c4.344,4.177,8.646,8.4,12.994,12.575a2.511,2.511,0,0,1,.835,2.324c-.664,5.262-1.283,10.53-1.924,15.8-.186,1.518-.435,1.639-1.759.79-4.07-2.615-8.137-5.249-12.212-7.867-.459-.3-1.044-.979-1.419-.706-.75.558-1.779.8-2.142,1.905-.574,1.723-1.392,3.358-1.927,5.087a3.544,3.544,0,0,1-2.678,2.472,31.863,31.863,0,0,1-9.01,1.016,34.323,34.323,0,0,1-9.585-.926,3.639,3.639,0,0,1-2.849-2.585c-.485-1.628-1.235-3.17-1.831-4.767a4.054,4.054,0,0,0-1.243-1.52c-.906-.851-1.545-.446-2.337.076q-6.067,4-12.154,7.962c-1.195.779-1.485.664-1.663-.7-.664-5.261-1.31-10.529-2-15.789a2.684,2.684,0,0,1,.9-2.521c2.129-2.053,4.188-4.178,6.276-6.271C350.094,218.5,350.145,218.551,350.2,218.6Zm32.272-45.535a9.177,9.177,0,1,0-13-.041A9.3,9.3,0,0,0,382.472,173.069Z" transform="translate(-127.546 -111.511)"/><path class="cls-11" d="M379.2,276.9c-.925.925-1.657,1.64-2.364,2.382-.386.41-.688.451-1.124.033-6.558-6.377-11.809-13.515-13.325-22.827a28.143,28.143,0,0,1-.092-6.918c.048-.593.234-.622.777-.551,1.239.165,1.751.719,2.012,2.033,1.007,5.186,3.743,9.533,7.043,13.554a39.438,39.438,0,0,0,3.391,3.678c.515.484.843.58,1.388.032,5.122-5.17,9.281-10.892,10.611-18.261.1-.555,2.022-1.461,2.384-1.1.168.176.152.554.184.845.812,6.981-1.213,13.25-4.781,19.131A52.414,52.414,0,0,1,379.2,276.9Z" transform="translate(-127.546 -111.511)"/><path class="cls-12" d="M399.784,420.976a7.357,7.357,0,1,1-7.371-7.344A7.349,7.349,0,0,1,399.784,420.976Z" transform="translate(-127.546 -111.511)"/><path class="cls-13" d="M415.461,414.375a4.482,4.482,0,1,1-4.492-4.472A4.484,4.484,0,0,1,415.461,414.375Z" transform="translate(-127.546 -111.511)"/><path class="cls-14" d="M410.176,431.171a4.482,4.482,0,1,1-4.492-4.47A4.485,4.485,0,0,1,410.176,431.171Z" transform="translate(-127.546 -111.511)"/><path class="cls-15" d="M355.442,447.432a4.481,4.481,0,1,1-4.491-4.47A4.484,4.484,0,0,1,355.442,447.432Z" transform="translate(-127.546 -111.511)"/><path class="cls-16" d="M366.605,465a7.357,7.357,0,1,1-7.37-7.34A7.354,7.354,0,0,1,366.605,465Z" transform="translate(-127.546 -111.511)"/></g><path class="cls-17" d="M262.161,314.351a140.031,140.031,0,0,1,51.176-32.3c.369-17.909.673-35.823.733-53.737-3.989,1-7.951,2.127-11.849,3.444a1.347,1.347,0,0,1-1.848-.661q-11.495-16.317-23.031-32.608c-.51-.717-.859-.892-1.743-.543a245.5,245.5,0,0,0-30.953,14.867,1.134,1.134,0,0,0-.628,1.613q5.832,19.116,11.626,38.233a1.285,1.285,0,0,1-.636,1.756A187.587,187.587,0,0,0,227.7,276.1a1.163,1.163,0,0,1-1.672.2q-17.613-9.824-35.253-19.59c-.687-.381-1.1-.46-1.727.217a246.37,246.37,0,0,0-21.427,26.651,1.2,1.2,0,0,0,.141,1.829q13.583,14.654,27.129,29.346a1.284,1.284,0,0,1,.216,1.86,186.577,186.577,0,0,0-15.161,31.3c-.252.684-.542.959-1.311.908q-11.775-.771-23.557-1.474c-5.712-.356-11.43-.686-17.142-1.057a.914.914,0,0,0-1.135.785,231.293,231.293,0,0,0-7.327,31.78c-.084.543.011,1.165-.426,1.63l0,1.166c4.911,1.93,9.824,3.847,14.724,5.79,7.939,3.145,15.866,6.319,23.813,9.442a1.2,1.2,0,0,1,.928,1.492,173.879,173.879,0,0,0-.395,28.7c.151,2.094.285,4.193.517,6.28.089.779-.344.894-.862,1.1q-18.576,7.476-37.15,14.97c-.464.186-.944.329-1.419.489l0,.935a50.325,50.325,0,0,1,1.157,6.136,238.6,238.6,0,0,0,6.757,27.493c.206.68.5.807,1.145.759q10.551-.723,21.1-1.4,9.793-.645,19.584-1.31a1.053,1.053,0,0,1,1.273.8,184.665,184.665,0,0,0,13.413,28.1,4,4,0,0,1,.564-.733l37.549-37.717a144.021,144.021,0,0,1-9.446-29.3,135.056,135.056,0,0,1-2.448-39.5Q224.426,351.481,262.161,314.351Z" transform="translate(-127.546 -111.511)"/><path class="cls-17" d="M487.341,313.836a139.968,139.968,0,0,0-51.32-32.06c-.451-17.907-.831-35.82-.981-53.735,4,.988,7.968,2.094,11.87,3.391a1.348,1.348,0,0,0,1.847-.669q11.415-16.367,22.881-32.712c.507-.72.85-.895,1.737-.551A246.011,246.011,0,0,1,504.4,212.225a1.134,1.134,0,0,1,.634,1.61q-5.748,19.138-11.452,38.287a1.288,1.288,0,0,0,.642,1.754,187.587,187.587,0,0,1,27.41,21.556,1.164,1.164,0,0,0,1.672.19q17.567-9.9,35.164-19.753c.684-.382,1.1-.463,1.728.211a246.586,246.586,0,0,1,21.544,26.552,1.2,1.2,0,0,1-.124,1.831q-13.523,14.716-27,29.471a1.274,1.274,0,0,0-.213,1.856,186.511,186.511,0,0,1,15.306,31.237c.257.681.544.956,1.316.9q11.773-.823,23.549-1.583c5.707-.379,11.425-.738,17.136-1.132a.9.9,0,0,1,1.135.779,231.324,231.324,0,0,1,7.478,31.748c.085.54-.012,1.164.428,1.626v1.167c-4.9,1.953-9.8,3.892-14.694,5.857-7.924,3.18-15.838,6.39-23.77,9.548a1.207,1.207,0,0,0-.923,1.5,173.555,173.555,0,0,1,.53,28.7c-.143,2.095-.265,4.193-.488,6.285-.089.775.344.884.867,1.088q18.608,7.393,37.213,14.8c.467.18.947.325,1.422.484l0,.935a48.869,48.869,0,0,0-1.127,6.139,240.1,240.1,0,0,1-6.629,27.527c-.208.678-.5.806-1.143.762-7.035-.451-14.076-.869-21.11-1.3q-9.8-.6-19.592-1.22a1.047,1.047,0,0,0-1.267.807A184.56,184.56,0,0,1,556.763,510.6a3.8,3.8,0,0,0-.567-.729l-37.721-37.546a143.537,143.537,0,0,0,9.311-29.343,134.77,134.77,0,0,0,2.27-39.513Q525.253,350.8,487.341,313.836Z" transform="translate(-127.546 -111.511)"/><path class="cls-17" d="M206.37,528.64c7.834-5.295,15.992-6.223,23.938-.68,7.725,5.386,9.859,13.176,7.357,22.083-.783,2.79-.183,3.332,2.468,3.466a27.317,27.317,0,0,1,20.038,9.9c1.826,2.146,3.27,1.868,5.583.9,8.964-3.753,17.614-2.985,25.5,2.882,1.976,1.468,3.449,1.965,5.842.789a45.837,45.837,0,0,1,19.715-4.463c2.363-.039,3.925.131,3.844-3.411-.346-14.632,8.565-21.8,22.678-18.755a11.665,11.665,0,0,0,2.2.014c-2.579-14.307,1.964-25.119,15.31-31.39,2.366-1.111,2.025-2.015,1.012-3.914-2.49-4.654-1.674-9.019,2.386-12.377,1.862-1.544,2.053-2.834,1.362-5a4.785,4.785,0,0,1,2.037-5.768,5.049,5.049,0,0,1,5.613-.2c2.264,1.4,3.423,3.836,2.221,6.238-1.256,2.51,0,3.376,1.572,4.76,3.744,3.305,4.543,7.594,2.372,11.912-1.47,2.931-.315,3.681,2,4.777,8.063,3.82,13.129,10.147,14.628,18.985.435,2.552,1.432,3.545,3.878,4.359,6.007,2.013,10.129,6.242,11.261,12.6.623,3.5,2.244,3.936,5.376,3.728a62.265,62.265,0,0,1,30.105,5.483,9.228,9.228,0,0,0,6.81.38c12.506-3.368,24.566-3.343,34.525,6.759,1.424,1.45,2.434,3,4.548.482,5.983-7.108,13.87-10.448,23.142-10.606-4.771-16.94,1.25-24.894,17.492-23.428-3.215,11.9-10.594,21.532-17.733,31.09-80.073,107.236-246.088,93.03-306.881-26.16C207.691,532.333,207.1,530.452,206.37,528.64Z" transform="translate(-127.546 -111.511)"/><path class="cls-17" d="M301.549,528.685a19.082,19.082,0,1,1-19.124-19.039A19.079,19.079,0,0,1,301.549,528.685Z" transform="translate(-127.546 -111.511)"/><path class="cls-17" d="M328.212,520.4a8.328,8.328,0,1,1-8.346-8.314A8.331,8.331,0,0,1,328.212,520.4Z" transform="translate(-127.546 -111.511)"/><path class="cls-17" d="M439.05,507.167a8.741,8.741,0,1,1-8.758-8.715A8.738,8.738,0,0,1,439.05,507.167Z" transform="translate(-127.546 -111.511)"/><path class="cls-17" d="M436.342,531.771a7.358,7.358,0,1,1-7.371-7.336A7.356,7.356,0,0,1,436.342,531.771Z" transform="translate(-127.546 -111.511)"/><path class="cls-17" d="M482.538,522.65a19.083,19.083,0,1,1-19.131-19.035A19.083,19.083,0,0,1,482.538,522.65Z" transform="translate(-127.546 -111.511)"/><path class="cls-17" d="M344.228,214.241c2.089-2.1,4.154-4.212,6.27-6.278a1.841,1.841,0,0,0,.607-1.692c-1.384-13.771-2.683-27.541-3.1-41.384a64.213,64.213,0,0,1,6.109-29.185,81.656,81.656,0,0,1,15.011-22.189c.612-.64.931-.692,1.56-.018,9.154,9.745,15.871,20.883,19.363,33.842a58.671,58.671,0,0,1,2.022,16.647c-.3,14.034-1.607,28-2.923,41.964a1.935,1.935,0,0,0,.655,1.775c4.344,4.179,8.652,8.4,13,12.578a2.51,2.51,0,0,1,.835,2.319c-.665,5.265-1.284,10.535-1.929,15.8-.184,1.521-.433,1.643-1.754.8q-6.108-3.93-12.215-7.874c-.457-.293-1.042-.976-1.416-.7-.753.557-1.783.806-2.147,1.9-.572,1.721-1.388,3.364-1.926,5.093a3.556,3.556,0,0,1-2.679,2.474,32.108,32.108,0,0,1-9.008,1.015,34.807,34.807,0,0,1-9.584-.929,3.66,3.66,0,0,1-2.856-2.586c-.48-1.627-1.23-3.168-1.822-4.766a4.1,4.1,0,0,0-1.245-1.523c-.909-.851-1.547-.443-2.339.083q-6.06,4-12.157,7.958c-1.192.779-1.48.662-1.655-.7-.669-5.261-1.315-10.528-2.008-15.791a2.682,2.682,0,0,1,.9-2.518c2.128-2.057,4.189-4.177,6.276-6.272C344.121,214.134,344.172,214.187,344.228,214.241ZM376.5,168.705a9.177,9.177,0,1,0-12.993-.042A9.3,9.3,0,0,0,376.5,168.705Z" transform="translate(-127.546 -111.511)"/><path class="cls-17" d="M373.226,272.538c-.921.927-1.659,1.64-2.359,2.382-.39.407-.691.452-1.122.032-6.562-6.377-11.811-13.513-13.328-22.825a27.833,27.833,0,0,1-.095-6.922c.05-.589.236-.623.777-.548,1.24.167,1.753.723,2.016,2.033,1.007,5.185,3.74,9.537,7.04,13.557a39.278,39.278,0,0,0,3.391,3.675c.512.483.846.583,1.392.034,5.119-5.175,9.279-10.893,10.608-18.261.1-.557,2.024-1.461,2.38-1.1.17.172.155.554.189.847.814,6.975-1.215,13.247-4.781,19.13A52.29,52.29,0,0,1,373.226,272.538Z" transform="translate(-127.546 -111.511)"/><rect class="cls-18" x="358.932" y="299.557" width="4.739" height="128.037" transform="translate(-128.266 -110.794) rotate(-0.114)"/><rect class="cls-18" x="370.356" y="289.504" width="4.74" height="164.274" transform="translate(-128.497 -110.554) rotate(-0.147)"/><rect class="cls-18" x="382.249" y="280.621" width="4.744" height="100.63" transform="translate(-128.066 -110.906) rotate(-0.09)"/><path class="cls-19" d="M397.394,419.042a7.357,7.357,0,1,1-7.378-7.339A7.36,7.36,0,0,1,397.394,419.042Z" transform="translate(-127.546 -111.511)"/><path class="cls-19" d="M414.148,412.472a4.482,4.482,0,1,1-4.5-4.471A4.487,4.487,0,0,1,414.148,412.472Z" transform="translate(-127.546 -111.511)"/><path class="cls-19" d="M408.865,429.27a4.483,4.483,0,1,1-4.5-4.471A4.481,4.481,0,0,1,408.865,429.27Z" transform="translate(-127.546 -111.511)"/><path class="cls-19" d="M354.131,445.533a4.484,4.484,0,1,1-4.493-4.471A4.485,4.485,0,0,1,354.131,445.533Z" transform="translate(-127.546 -111.511)"/><path class="cls-19" d="M364.21,461.483a7.359,7.359,0,1,1-7.372-7.34A7.355,7.355,0,0,1,364.21,461.483Z" transform="translate(-127.546 -111.511)"/></svg>