<svg id="Layer_3" data-name="Layer 3" xmlns="http://www.w3.org/2000/svg" xmlns:xlink="http://www.w3.org/1999/xlink" viewBox="0 0 714.5 714.5"><defs><style>.cls-1{opacity:0.5;}.cls-17,.cls-19,.cls-2,.cls-20,.cls-21,.cls-3{fill:none;stroke-miterlimit:10;}.cls-2{stroke-width:4px;stroke:url(#linear-gradient);}.cls-10,.cls-11,.cls-12,.cls-13,.cls-14,.cls-15,.cls-16,.cls-17,.cls-19,.cls-2,.cls-3,.cls-4,.cls-5,.cls-6,.cls-7,.cls-8,.cls-9{fill-rule:evenodd;}.cls-3{stroke-width:5px;stroke:url(#linear-gradient-2);}.cls-4{fill:url(#linear-gradient-3);}.cls-5{fill:url(#linear-gradient-4);}.cls-6{fill:url(#linear-gradient-5);}.cls-7{fill:url(#linear-gradient-6);}.cls-8{fill:url(#linear-gradient-7);}.cls-9{fill:url(#linear-gradient-8);}.cls-10{fill:url(#linear-gradient-9);}.cls-11{fill:url(#linear-gradient-10);}.cls-12{fill:url(#linear-gradient-11);}.cls-13{fill:url(#linear-gradient-12);}.cls-14{fill:url(#linear-gradient-13);}.cls-15{fill:url(#linear-gradient-14);}.cls-16{fill:url(#linear-gradient-15);}.cls-17,.cls-19,.cls-21{stroke:#fff;}.cls-17{stroke-width:3px;}.cls-18{fill:#fff;}.cls-19{stroke-width:2px;}.cls-20{stroke:#000;opacity:0.42;}.cls-20,.cls-21{stroke-width:9px;}</style><linearGradient id="linear-gradient" x1="134.87" y1="355.69" x2="324.26" y2="355.69" gradientTransform="translate(-2.12 6.02) rotate(-0.13)" gradientUnits="userSpaceOnUse"><stop offset="0.01"/><stop offset="0.99"/></linearGradient><linearGradient id="linear-gradient-2" x1="426.03" y1="355.92" x2="616.41" y2="355.92" xlink:href="#linear-gradient"/><linearGradient id="linear-gradient-3" x1="214.81" y1="558.46" x2="541.62" y2="558.46" xlink:href="#linear-gradient"/><linearGradient id="linear-gradient-4" x1="269.81" y1="527.78" x2="307.98" y2="527.78" xlink:href="#linear-gradient"/><linearGradient id="linear-gradient-5" x1="314.88" y1="517.71" x2="331.54" y2="517.71" xlink:href="#linear-gradient"/><linearGradient id="linear-gradient-6" x1="427.31" y1="529.49" x2="442.02" y2="529.49" xlink:href="#linear-gradient"/><linearGradient id="linear-gradient-7" x1="450.99" y1="521.44" x2="489.16" y2="521.44" xlink:href="#linear-gradient"/><linearGradient id="linear-gradient-8" x1="427.31" y1="505.58" x2="444.78" y2="505.58" xlink:href="#linear-gradient"/><linearGradient id="linear-gradient-9" x1="344.44" y1="176.28" x2="411.24" y2="176.28" xlink:href="#linear-gradient"/><linearGradient id="linear-gradient-10" x1="363.68" y1="259.11" x2="391.81" y2="259.11" xlink:href="#linear-gradient"/><linearGradient id="linear-gradient-11" x1="386.23" y1="415.87" x2="400.95" y2="415.87" xlink:href="#linear-gradient"/><linearGradient id="linear-gradient-12" x1="407.68" y1="409.31" x2="416.64" y2="409.31" xlink:href="#linear-gradient"/><linearGradient id="linear-gradient-13" x1="402.35" y1="426.1" x2="411.32" y2="426.1" xlink:href="#linear-gradient"/><linearGradient id="linear-gradient-14" x1="347.58" y1="442.23" x2="356.54" y2="442.23" xlink:href="#linear-gradient"/><linearGradient id="linear-gradient-15" x1="352.95" y1="459.82" x2="367.67" y2="459.82" xlink:href="#linear-gradient"/></defs><title>logo</title><g class="cls-1"><path class="cls-2" d="M268.74,319.93a140.16,140.16,0,0,1,51.18-32.29c.37-17.91.67-35.82.73-53.74-4,1-7.95,2.13-11.85,3.45a1.36,1.36,0,0,1-1.85-.66q-11.49-16.32-23-32.61c-.51-.72-.86-.89-1.74-.54a246.55,246.55,0,0,0-31,14.87,1.12,1.12,0,0,0-.62,1.61q5.82,19.11,11.62,38.23a1.28,1.28,0,0,1-.63,1.76,186.43,186.43,0,0,0-27.31,21.68,1.17,1.17,0,0,1-1.67.2q-17.62-9.83-35.26-19.6a1.15,1.15,0,0,0-1.72.22,247,247,0,0,0-21.43,26.65,1.2,1.2,0,0,0,.14,1.83q13.57,14.65,27.13,29.35a1.27,1.27,0,0,1,.21,1.85,185.93,185.93,0,0,0-15.15,31.31c-.26.68-.55,1-1.32.91-7.85-.52-15.7-1-23.56-1.47-5.71-.36-11.42-.69-17.14-1.06a.91.91,0,0,0-1.13.78,232.09,232.09,0,0,0-7.33,31.79c-.08.54,0,1.16-.42,1.62v1.17q7.37,2.89,14.72,5.79c7.94,3.15,15.87,6.32,23.81,9.44a1.21,1.21,0,0,1,.93,1.5,175.06,175.06,0,0,0-.39,28.69c.15,2.1.28,4.2.52,6.28.09.78-.35.89-.87,1.1l-37.14,15c-.47.19-1,.33-1.42.49v.94a50.94,50.94,0,0,1,1.16,6.13,238.06,238.06,0,0,0,6.75,27.49c.21.68.51.81,1.15.76,7-.48,14.06-.93,21.1-1.4,6.53-.43,13.06-.85,19.58-1.31a1.07,1.07,0,0,1,1.28.81A184.53,184.53,0,0,0,200.22,517a4.06,4.06,0,0,1,.56-.73l37.55-37.72a143.64,143.64,0,0,1-9.44-29.29,135.14,135.14,0,0,1-2.45-39.51Q231,357.07,268.74,319.93Z" transform="translate(-17 -20)"/><path class="cls-3" d="M479.25,319.45a140.09,140.09,0,0,0-51.32-32.06c-.45-17.91-.83-35.82-1-53.73,4,1,8,2.09,11.87,3.39.94.32,1.33.07,1.84-.67q11.43-16.37,22.88-32.71c.51-.72.86-.9,1.74-.55a245.87,245.87,0,0,1,31,14.73c.77.43.87.81.63,1.61q-5.74,19.13-11.45,38.29a1.29,1.29,0,0,0,.64,1.75,186.41,186.41,0,0,1,27.41,21.55,1.17,1.17,0,0,0,1.68.19q17.56-9.9,35.16-19.75c.68-.38,1.09-.46,1.73.21a247.06,247.06,0,0,1,21.54,26.55,1.2,1.2,0,0,1-.13,1.83q-13.51,14.71-27,29.48a1.27,1.27,0,0,0-.21,1.85,186.75,186.75,0,0,1,15.3,31.24c.26.68.55,1,1.32.9q11.77-.82,23.55-1.58c5.71-.38,11.43-.74,17.14-1.14.66,0,.93.12,1.13.78a229.07,229.07,0,0,1,7.47,31.75c.09.54,0,1.16.44,1.62v1.17q-7.35,2.93-14.7,5.86c-7.92,3.18-15.83,6.39-23.77,9.55a1.21,1.21,0,0,0-.92,1.5,172.87,172.87,0,0,1,.53,28.69c-.14,2.1-.27,4.2-.49,6.29-.08.77.35.88.87,1.09l37.21,14.8c.47.18,1,.32,1.43.48v.94a47.37,47.37,0,0,0-1.13,6.14A240.15,240.15,0,0,1,605.07,489c-.21.68-.5.81-1.14.76-7-.45-14.08-.87-21.11-1.3-6.53-.4-13.06-.79-19.59-1.21a1,1,0,0,0-1.27.8,184.57,184.57,0,0,1-13.29,28.15,3.67,3.67,0,0,0-.57-.72l-37.71-37.55a143.18,143.18,0,0,0,9.3-29.34A134.45,134.45,0,0,0,522,409.08Q517.16,356.42,479.25,319.45Z" transform="translate(-17 -20)"/><path class="cls-4" d="M213.91,534.9c7.83-5.29,16-6.22,23.93-.68,7.73,5.39,9.86,13.18,7.36,22.09-.78,2.79-.18,3.33,2.47,3.47a27.27,27.27,0,0,1,20,9.9c1.83,2.14,3.27,1.87,5.58.89,9-3.75,17.61-3,25.5,2.88,2,1.47,3.45,2,5.84.8a45.84,45.84,0,0,1,19.72-4.47c2.36,0,3.92.13,3.84-3.41-.34-14.64,8.57-21.81,22.68-18.75a13.13,13.13,0,0,0,2.21,0c-2.59-14.3,2-25.12,15.3-31.39,2.37-1.11,2-2,1-3.91-2.49-4.66-1.68-9,2.38-12.38,1.87-1.55,2.05-2.84,1.37-5a4.78,4.78,0,0,1,2-5.76,5,5,0,0,1,5.61-.21c2.27,1.4,3.43,3.84,2.22,6.24s0,3.37,1.58,4.76c3.74,3.3,4.54,7.59,2.37,11.92-1.47,2.92-.31,3.67,2,4.77,8.06,3.82,13.13,10.14,14.63,19,.43,2.56,1.43,3.55,3.88,4.37,6,2,10.13,6.24,11.26,12.59.62,3.5,2.24,3.94,5.37,3.73a62.31,62.31,0,0,1,30.11,5.48,9.21,9.21,0,0,0,6.81.38c12.51-3.37,24.57-3.35,34.52,6.76,1.43,1.45,2.44,3,4.56.48,6-7.11,13.86-10.45,23.14-10.6-4.78-16.94,1.24-24.9,17.49-23.43-3.22,11.9-10.6,21.52-17.74,31.09-80.08,107.23-246.08,93-306.88-26.16C215.23,538.6,214.64,536.72,213.91,534.9Z" transform="translate(-17 -20)"/><path class="cls-5" d="M307.07,533.09a19.09,19.09,0,1,1-19.12-19A19.08,19.08,0,0,1,307.07,533.09Z" transform="translate(-17 -20)"/><path class="cls-6" d="M330.61,523a8.33,8.33,0,1,1-8.35-8.31A8.33,8.33,0,0,1,330.61,523Z" transform="translate(-17 -20)"/><path class="cls-7" d="M441.12,534.5a7.36,7.36,0,1,1-7.37-7.34A7.36,7.36,0,0,1,441.12,534.5Z" transform="translate(-17 -20)"/><path class="cls-8" d="M488.24,526.34a19.09,19.09,0,1,1-19.13-19A19.09,19.09,0,0,1,488.24,526.34Z" transform="translate(-17 -20)"/><path class="cls-9" d="M443.83,510.58a8.74,8.74,0,1,1-8.76-8.72A8.74,8.74,0,0,1,443.83,510.58Z" transform="translate(-17 -20)"/><path class="cls-10" d="M350.2,218.6c2.08-2.09,4.15-4.21,6.27-6.27a1.8,1.8,0,0,0,.6-1.69c-1.37-13.77-2.68-27.54-3.09-41.38a64.14,64.14,0,0,1,6.1-29.19,81.43,81.43,0,0,1,15-22.19c.6-.64.93-.69,1.56,0,9.15,9.75,15.86,20.89,19.36,33.84a59.09,59.09,0,0,1,2,16.65c-.3,14-1.6,28-2.92,42a1.91,1.91,0,0,0,.65,1.77c4.35,4.18,8.65,8.4,13,12.57a2.54,2.54,0,0,1,.83,2.33c-.66,5.26-1.28,10.53-1.92,15.8-.19,1.52-.44,1.64-1.76.79l-12.21-7.87c-.46-.3-1-1-1.42-.7-.75.55-1.78.8-2.14,1.9-.58,1.72-1.39,3.36-1.93,5.09a3.56,3.56,0,0,1-2.68,2.47,31.82,31.82,0,0,1-9,1,34.35,34.35,0,0,1-9.58-.93A3.63,3.63,0,0,1,364.1,242c-.49-1.62-1.24-3.17-1.83-4.76a4,4,0,0,0-1.25-1.52c-.9-.85-1.54-.45-2.33.07q-6.07,4-12.16,8c-1.19.77-1.48.66-1.66-.7-.66-5.26-1.31-10.53-2-15.79a2.66,2.66,0,0,1,.89-2.52c2.13-2.06,4.19-4.18,6.28-6.27Zm32.27-45.53a9.17,9.17,0,1,0-13,0A9.29,9.29,0,0,0,382.47,173.07Z" transform="translate(-17 -20)"/><path class="cls-11" d="M379.2,276.9c-.92.93-1.66,1.64-2.36,2.39-.39.41-.69.45-1.13,0-6.55-6.38-11.81-13.51-13.32-22.83a27.62,27.62,0,0,1-.09-6.92c0-.59.23-.62.77-.55,1.24.17,1.75.72,2,2,1,5.18,3.75,9.53,7.05,13.55a39.3,39.3,0,0,0,3.39,3.68c.51.48.84.58,1.39,0,5.12-5.17,9.28-10.89,10.61-18.26.1-.55,2-1.46,2.38-1.1.17.17.15.55.19.84.81,7-1.22,13.25-4.79,19.13A52,52,0,0,1,379.2,276.9Z" transform="translate(-17 -20)"/><path class="cls-12" d="M399.78,421a7.36,7.36,0,1,1-7.37-7.35A7.35,7.35,0,0,1,399.78,421Z" transform="translate(-17 -20)"/><path class="cls-13" d="M415.46,414.38A4.48,4.48,0,1,1,411,409.9,4.49,4.49,0,0,1,415.46,414.38Z" transform="translate(-17 -20)"/><path class="cls-14" d="M410.18,431.17a4.49,4.49,0,1,1-4.5-4.47A4.48,4.48,0,0,1,410.18,431.17Z" transform="translate(-17 -20)"/><path class="cls-15" d="M355.44,447.43A4.48,4.48,0,1,1,351,443,4.49,4.49,0,0,1,355.44,447.43Z" transform="translate(-17 -20)"/><path class="cls-16" d="M366.6,465a7.36,7.36,0,1,1-7.37-7.34A7.35,7.35,0,0,1,366.6,465Z" transform="translate(-17 -20)"/></g><path class="cls-17" d="M262.16,314.35a139.9,139.9,0,0,1,51.18-32.29c.37-17.91.67-35.83.73-53.74-4,1-7.95,2.13-11.85,3.44a1.34,1.34,0,0,1-1.85-.66c-7.66-10.88-15.37-21.73-23-32.61-.51-.71-.86-.89-1.74-.54a245.76,245.76,0,0,0-31,14.87,1.13,1.13,0,0,0-.63,1.61q5.83,19.13,11.62,38.23a1.29,1.29,0,0,1-.63,1.76A187.78,187.78,0,0,0,227.7,276.1a1.16,1.16,0,0,1-1.67.2q-17.61-9.82-35.26-19.59c-.68-.38-1.09-.46-1.72.22a246,246,0,0,0-21.43,26.65,1.2,1.2,0,0,0,.14,1.83c9.06,9.77,18.07,19.58,27.13,29.34a1.29,1.29,0,0,1,.22,1.86A185.61,185.61,0,0,0,180,347.92c-.26.68-.55.95-1.32.9q-11.77-.76-23.55-1.47c-5.72-.36-11.43-.69-17.15-1.06a.91.91,0,0,0-1.13.79,232,232,0,0,0-7.33,31.78c-.08.54,0,1.16-.42,1.63v1.16q7.37,2.89,14.72,5.79c7.94,3.15,15.87,6.32,23.82,9.45a1.19,1.19,0,0,1,.93,1.49,174.08,174.08,0,0,0-.4,28.7c.15,2.09.28,4.19.52,6.28.09.78-.35.89-.87,1.1l-37.14,15c-.47.19-.95.33-1.42.49v.94a51.31,51.31,0,0,1,1.16,6.13,237.72,237.72,0,0,0,6.75,27.5c.21.68.51.8,1.15.76,7-.49,14.07-.94,21.1-1.4q9.8-.64,19.58-1.31a1.05,1.05,0,0,1,1.28.8,184.64,184.64,0,0,0,13.41,28.1,3.74,3.74,0,0,1,.56-.73L231.75,473a144.35,144.35,0,0,1-9.44-29.3,135.1,135.1,0,0,1-2.45-39.51Q224.42,351.49,262.16,314.35Z" transform="translate(-17 -20)"/><path class="cls-17" d="M487.34,313.84A140,140,0,0,0,436,281.78c-.45-17.91-.83-35.82-1-53.74,4,1,8,2.09,11.87,3.39a1.36,1.36,0,0,0,1.85-.67q11.42-16.37,22.88-32.71c.51-.72.85-.89,1.74-.55a245.08,245.08,0,0,1,31,14.73,1.13,1.13,0,0,1,.63,1.61q-5.75,19.13-11.45,38.28a1.3,1.3,0,0,0,.64,1.76,187.08,187.08,0,0,1,27.41,21.55,1.17,1.17,0,0,0,1.68.19q17.57-9.9,35.16-19.75c.68-.38,1.1-.46,1.73.21a247.06,247.06,0,0,1,21.54,26.55,1.19,1.19,0,0,1-.12,1.83q-13.53,14.71-27,29.47a1.28,1.28,0,0,0-.21,1.86A186.8,186.8,0,0,1,569.72,347c.25.68.54,1,1.31.9q11.78-.82,23.55-1.58c5.71-.38,11.43-.74,17.14-1.14.66,0,.93.12,1.13.78a232,232,0,0,1,7.48,31.75c.09.54,0,1.16.43,1.63v1.16l-14.69,5.86c-7.93,3.18-15.84,6.39-23.78,9.55a1.2,1.2,0,0,0-.92,1.49,173,173,0,0,1,.53,28.7c-.14,2.1-.26,4.2-.49,6.29-.08.77.35.88.87,1.09l37.21,14.8c.47.18,1,.32,1.43.48v.94a49.12,49.12,0,0,0-1.13,6.14,238.07,238.07,0,0,1-6.63,27.52c-.2.68-.5.81-1.14.77-7-.45-14.08-.87-21.11-1.31-6.53-.4-13.06-.79-19.59-1.22a1.06,1.06,0,0,0-1.27.81,184.68,184.68,0,0,1-13.29,28.16,3.65,3.65,0,0,0-.56-.73l-37.73-37.55A143.22,143.22,0,0,0,527.79,443a135.07,135.07,0,0,0,2.27-39.51Q525.25,350.79,487.34,313.84Z" transform="translate(-17 -20)"/><path class="cls-17" d="M206.37,528.64c7.83-5.3,16-6.22,23.94-.68,7.72,5.39,9.86,13.18,7.35,22.08-.78,2.79-.18,3.33,2.47,3.47a27.35,27.35,0,0,1,20,9.9c1.83,2.15,3.27,1.87,5.58.9,9-3.75,17.62-3,25.5,2.88,2,1.47,3.45,2,5.84.79a45.83,45.83,0,0,1,19.72-4.46c2.36,0,3.92.13,3.84-3.41-.34-14.64,8.57-21.81,22.68-18.76a12,12,0,0,0,2.21,0c-2.58-14.31,2-25.12,15.31-31.4,2.36-1.11,2-2,1-3.91-2.49-4.65-1.68-9,2.38-12.38,1.87-1.54,2.06-2.83,1.37-5a4.79,4.79,0,0,1,2-5.77,5.06,5.06,0,0,1,5.62-.2c2.26,1.39,3.42,3.83,2.22,6.24s0,3.37,1.57,4.76c3.74,3.3,4.54,7.59,2.37,11.91-1.47,2.93-.31,3.68,2,4.78,8.06,3.82,13.13,10.14,14.63,19,.44,2.55,1.43,3.54,3.88,4.36,6,2,10.13,6.24,11.26,12.59.62,3.51,2.24,3.94,5.38,3.73a62.3,62.3,0,0,1,30.1,5.49,9.22,9.22,0,0,0,6.81.38c12.51-3.37,24.57-3.35,34.52,6.76,1.43,1.45,2.44,3,4.55.48,6-7.11,13.87-10.45,23.14-10.61-4.77-16.94,1.26-24.89,17.5-23.43-3.22,11.91-10.6,21.53-17.74,31.09-80.07,107.24-246.08,93-306.88-26.16C207.69,532.33,207.1,530.45,206.37,528.64Z" transform="translate(-17 -20)"/><path class="cls-17" d="M301.55,528.68a19.08,19.08,0,1,1-19.12-19A19.08,19.08,0,0,1,301.55,528.68Z" transform="translate(-17 -20)"/><path class="cls-17" d="M328.21,520.4a8.33,8.33,0,1,1-8.34-8.31A8.34,8.34,0,0,1,328.21,520.4Z" transform="translate(-17 -20)"/><path class="cls-17" d="M439.05,507.17a8.74,8.74,0,1,1-8.76-8.72A8.73,8.73,0,0,1,439.05,507.17Z" transform="translate(-17 -20)"/><path class="cls-17" d="M436.34,531.77a7.36,7.36,0,1,1-7.37-7.34A7.35,7.35,0,0,1,436.34,531.77Z" transform="translate(-17 -20)"/><path class="cls-17" d="M482.54,522.65a19.09,19.09,0,1,1-19.13-19A19.09,19.09,0,0,1,482.54,522.65Z" transform="translate(-17 -20)"/><path class="cls-17" d="M344.23,214.24c2.09-2.1,4.15-4.21,6.27-6.28a1.85,1.85,0,0,0,.61-1.69c-1.39-13.77-2.69-27.54-3.11-41.38a64.31,64.31,0,0,1,6.11-29.19,81.92,81.92,0,0,1,15-22.19c.62-.64.93-.69,1.56,0,9.16,9.75,15.87,20.89,19.37,33.85a58.66,58.66,0,0,1,2,16.64c-.3,14-1.61,28-2.93,42a1.94,1.94,0,0,0,.66,1.77c4.34,4.18,8.65,8.4,13,12.58a2.51,2.51,0,0,1,.83,2.32c-.66,5.26-1.28,10.53-1.93,15.8-.18,1.52-.43,1.64-1.75.8l-12.21-7.88c-.46-.29-1.05-1-1.42-.7-.75.56-1.78.81-2.15,1.9-.57,1.72-1.39,3.37-1.92,5.1a3.57,3.57,0,0,1-2.68,2.47,32.22,32.22,0,0,1-9,1,34.45,34.45,0,0,1-9.59-.93,3.66,3.66,0,0,1-2.85-2.58c-.48-1.63-1.23-3.17-1.82-4.77a4.08,4.08,0,0,0-1.25-1.52c-.91-.85-1.55-.44-2.34.08-4,2.67-8.1,5.31-12.15,8-1.2.78-1.48.66-1.66-.7-.67-5.26-1.31-10.53-2-15.79a2.69,2.69,0,0,1,.9-2.52c2.13-2,4.19-4.17,6.28-6.27ZM376.5,168.7a9.18,9.18,0,1,0-13,0A9.29,9.29,0,0,0,376.5,168.7Z" transform="translate(-17 -20)"/><path class="cls-17" d="M373.23,272.54c-.93.93-1.66,1.64-2.36,2.38-.39.41-.69.45-1.13,0-6.56-6.38-11.81-13.51-13.32-22.82a28.19,28.19,0,0,1-.1-6.93c.05-.58.24-.62.78-.54,1.24.16,1.75.72,2,2,1,5.18,3.74,9.54,7.05,13.56a37.88,37.88,0,0,0,3.39,3.67c.51.48.84.59,1.39,0,5.12-5.18,9.28-10.9,10.61-18.27.1-.55,2-1.46,2.38-1.1.17.17.15.55.19.85.81,7-1.22,13.25-4.79,19.13A52,52,0,0,1,373.23,272.54Z" transform="translate(-17 -20)"/><rect class="cls-18" x="358.93" y="299.56" width="4.74" height="128.04" transform="translate(-17.72 -19.28) rotate(-0.11)"/><rect class="cls-18" x="370.36" y="289.5" width="4.74" height="164.27" transform="translate(-17.95 -19.04) rotate(-0.15)"/><rect class="cls-18" x="382.25" y="280.62" width="4.74" height="100.63" transform="translate(-17.52 -19.4) rotate(-0.09)"/><path class="cls-19" d="M397.39,419A7.36,7.36,0,1,1,390,411.7,7.36,7.36,0,0,1,397.39,419Z" transform="translate(-17 -20)"/><path class="cls-19" d="M414.15,412.47a4.49,4.49,0,1,1-4.5-4.47A4.49,4.49,0,0,1,414.15,412.47Z" transform="translate(-17 -20)"/><path class="cls-19" d="M408.86,429.27a4.48,4.48,0,1,1-4.49-4.47A4.47,4.47,0,0,1,408.86,429.27Z" transform="translate(-17 -20)"/><path class="cls-19" d="M354.13,445.53a4.49,4.49,0,1,1-4.49-4.47A4.49,4.49,0,0,1,354.13,445.53Z" transform="translate(-17 -20)"/><path class="cls-19" d="M364.21,461.48a7.36,7.36,0,1,1-7.37-7.34A7.36,7.36,0,0,1,364.21,461.48Z" transform="translate(-17 -20)"/><rect class="cls-20" x="22.81" y="22.81" width="687.19" height="687.19"/><rect class="cls-21" x="4.5" y="4.5" width="687.19" height="687.19"/></svg>